# xmcd
#
# Track frame offsets:
#	150
#	13256
#	31352
#	45318
#	57801
#	74790
#	89774
#	107227
#	122860
#	140987
#	158285
#	171071
#	184664
#	201302
#	217721
#	231565
#	249529
#	271063
#	284312
#	300484
#
# Disc length: 4206
#
# Revision: 1
# Processed by: cddbd v1.5.1PL0 Copyright (c) Steve Scherf et al.
# Submitted via: ExactAudioCopy v0.90b4
# Normalized: r0:DSETVAR1
#
DISCID=26106c14
DTITLE=Various Artist - Soul - Disc 3
DYEAR=2002
DGENRE=Soul
TTITLE0=Fontella_Bass - Rescue_Me
TTITLE1=The_Commitments - Mustang_Sally
TTITLE2=Etta_James - I_Just_Wanna_Make_Love_to_You
TTITLE3=James_Brown - James Brown\\is A Mans Mans Wor
TTITLE4=Cameo - Shes_Strange
TTITLE5=Shakatak - Down_on_the_Street
TTITLE6=Womack_and_Womack - Teardrops
TTITLE7=Gwen_Guthrie - Gwen Guthrie\\aint Nothin Goin
TTITLE8=The_Gap_Band - The Gap Band\\burn Rubber on Me
TTITLE9=Debarge - Rhythm_of_the_Night
TTITLE10=He_Miracles - He Miracles\\love Machine Part
TTITLE11=Gloria_Gaynor - Gloria Gaynor\\never Can Say Go
TTITLE12=Cece_Peniston - Cece Peniston\\we Got A Love Th
TTITLE13=Thelma_Houston - Dont_Leave_Me_this_Way
TTITLE14=Kool_and_the_Gang - Kool and the Gang\\jungle Boogi
TTITLE15=Roy_Ayers - Roy Ayers\\everybody Loves the
TTITLE16=Ohio_Players - Ohio Players\\love Rollercoaste
TTITLE17=The_Four_Tops - The Four Tops\\reach Out Ill Be
TTITLE18=Commodores - Brick_House
TTITLE19=Edwin_Starr - War
EXTD=
EXTT0=
EXTT1=
EXTT2=
EXTT3=
EXTT4=
EXTT5=
EXTT6=
EXTT7=
EXTT8=
EXTT9=
EXTT10=
EXTT11=
EXTT12=
EXTT13=
EXTT14=
EXTT15=
EXTT16=
EXTT17=
EXTT18=
EXTT19=
PLAYORDER=
